<mxfile host="app.diagrams.net" modified="2023-04-22T16:40:56.325Z" agent="Mozilla/5.0 (Windows NT 10.0; Win64; x64) AppleWebKit/537.36 (KHTML, like Gecko) Chrome/111.0.0.0 Safari/537.36 OPR/97.0.0.0" etag="sriF8icQUER0pToRlaGd" version="21.2.1" type="device">
  <diagram name="PÃ¡gina-1" id="2vZwQF0gGV7wMGsWQ70b">
    <mxGraphModel dx="678" dy="537" grid="1" gridSize="10" guides="1" tooltips="1" connect="1" arrows="1" fold="1" page="1" pageScale="1" pageWidth="827" pageHeight="1169" math="0" shadow="0">
      <root>
        <mxCell id="0" />
        <mxCell id="1" parent="0" />
        <mxCell id="Zp02J4jgDj7Ante9mciW-1" value="REGISTRO&lt;br&gt;RMI &lt;br&gt;(REMOTE)" style="rounded=0;whiteSpace=wrap;html=1;" vertex="1" parent="1">
          <mxGeometry x="260" y="40" width="120" height="60" as="geometry" />
        </mxCell>
        <mxCell id="Zp02J4jgDj7Ante9mciW-4" style="edgeStyle=orthogonalEdgeStyle;rounded=0;orthogonalLoop=1;jettySize=auto;html=1;exitX=1;exitY=0.5;exitDx=0;exitDy=0;entryX=0;entryY=0.5;entryDx=0;entryDy=0;" edge="1" parent="1" source="Zp02J4jgDj7Ante9mciW-2" target="Zp02J4jgDj7Ante9mciW-3">
          <mxGeometry relative="1" as="geometry" />
        </mxCell>
        <mxCell id="Zp02J4jgDj7Ante9mciW-2" value="CLIENTE" style="rounded=0;whiteSpace=wrap;html=1;" vertex="1" parent="1">
          <mxGeometry x="40" y="220" width="120" height="60" as="geometry" />
        </mxCell>
        <mxCell id="Zp02J4jgDj7Ante9mciW-5" style="edgeStyle=orthogonalEdgeStyle;rounded=0;orthogonalLoop=1;jettySize=auto;html=1;exitX=0;exitY=0.5;exitDx=0;exitDy=0;entryX=1;entryY=0.5;entryDx=0;entryDy=0;" edge="1" parent="1" source="Zp02J4jgDj7Ante9mciW-3" target="Zp02J4jgDj7Ante9mciW-2">
          <mxGeometry relative="1" as="geometry" />
        </mxCell>
        <mxCell id="Zp02J4jgDj7Ante9mciW-8" value="SE INVOCAN LOS METODOS UTILIZANDO EL&lt;br&gt;&amp;nbsp;OBJETO REQUERIDO PARA ELLO" style="edgeLabel;html=1;align=center;verticalAlign=middle;resizable=0;points=[];" vertex="1" connectable="0" parent="Zp02J4jgDj7Ante9mciW-5">
          <mxGeometry x="0.1763" y="3" relative="1" as="geometry">
            <mxPoint x="28" y="17" as="offset" />
          </mxGeometry>
        </mxCell>
        <mxCell id="Zp02J4jgDj7Ante9mciW-3" value="SERVIDOR" style="rounded=0;whiteSpace=wrap;html=1;" vertex="1" parent="1">
          <mxGeometry x="480" y="220" width="120" height="60" as="geometry" />
        </mxCell>
        <mxCell id="Zp02J4jgDj7Ante9mciW-6" value="" style="endArrow=classic;startArrow=classic;html=1;rounded=0;entryX=1;entryY=0.5;entryDx=0;entryDy=0;exitX=0.5;exitY=0;exitDx=0;exitDy=0;" edge="1" parent="1" source="Zp02J4jgDj7Ante9mciW-3" target="Zp02J4jgDj7Ante9mciW-1">
          <mxGeometry width="50" height="50" relative="1" as="geometry">
            <mxPoint x="330" y="290" as="sourcePoint" />
            <mxPoint x="380" y="240" as="targetPoint" />
          </mxGeometry>
        </mxCell>
        <mxCell id="Zp02J4jgDj7Ante9mciW-12" value="REGISTRA EL OBJETO EN EL REGISTRO&lt;br&gt;UTILIZANDO EL METODO REBIND()" style="edgeLabel;html=1;align=center;verticalAlign=middle;resizable=0;points=[];" vertex="1" connectable="0" parent="Zp02J4jgDj7Ante9mciW-6">
          <mxGeometry x="-0.1937" relative="1" as="geometry">
            <mxPoint x="24" y="-10" as="offset" />
          </mxGeometry>
        </mxCell>
        <mxCell id="Zp02J4jgDj7Ante9mciW-7" value="" style="endArrow=classic;startArrow=classic;html=1;rounded=0;entryX=0;entryY=0.5;entryDx=0;entryDy=0;exitX=0.5;exitY=0;exitDx=0;exitDy=0;" edge="1" parent="1" source="Zp02J4jgDj7Ante9mciW-2" target="Zp02J4jgDj7Ante9mciW-1">
          <mxGeometry width="50" height="50" relative="1" as="geometry">
            <mxPoint x="550" y="230" as="sourcePoint" />
            <mxPoint x="390" y="80" as="targetPoint" />
          </mxGeometry>
        </mxCell>
        <mxCell id="Zp02J4jgDj7Ante9mciW-10" value="SOLICITA EL OBJETO NECESARIO DEL REGISTRO&lt;br&gt;&amp;nbsp;USANDO EL METODO LOOKUP()" style="edgeLabel;html=1;align=center;verticalAlign=middle;resizable=0;points=[];" vertex="1" connectable="0" parent="Zp02J4jgDj7Ante9mciW-7">
          <mxGeometry x="-0.1265" relative="1" as="geometry">
            <mxPoint x="-10" as="offset" />
          </mxGeometry>
        </mxCell>
      </root>
    </mxGraphModel>
  </diagram>
</mxfile>
